<svg width="73" height="31" viewBox="0 0 73 31" fill="none" xmlns="http://www.w3.org/2000/svg">
<path d="M19.4996 20.5595C18.3697 22.9888 15.851 24.557 13.0895 24.557C9.22972 24.557 6.08802 21.5323 6.08802 17.8113C6.08802 14.0903 9.22972 11.0656 13.0895 11.0656C15.8827 11.0656 18.4066 12.655 19.526 15.1215L19.8059 15.7435L25.4504 13.5746L25.1441 12.873C23.0901 8.16851 18.3591 5.1279 13.0842 5.1279C5.87154 5.12259 0 10.8158 0 17.8113C0 24.8068 5.87154 30.5 13.0895 30.5C18.2535 30.5 22.9476 27.5444 25.0491 22.9729L25.3659 22.2872L19.8006 19.9217L19.5049 20.5542L19.4996 20.5595Z" fill="#595959"/>
<path d="M66.5617 7.4562V11.9268C66.5617 13.261 65.5057 14.3401 64.2067 14.3401H26.6596C26.8074 15.3342 26.8919 16.392 26.8919 17.4498C26.8919 18.5077 26.8074 19.5655 26.6596 20.5595H67.2112C70.1839 20.5595 72.5969 18.0877 72.5969 15.0418V7.4562H66.5617Z" fill="#595959"/>
<path d="M54.6708 1.37498H50.5258V6.22029V11.0656H54.6708V6.22029V1.37498Z" fill="#595959"/>
<path d="M60.2349 0.672821L56.4593 2.39466L60.4311 11.2218L64.2067 9.50001L60.2349 0.672821Z" fill="#F05353"/>
</svg>
