<svg width="16" height="24" viewBox="0 0 16 24" fill="none" xmlns="http://www.w3.org/2000/svg">
<path d="M6.55125 18.5087L9.53992 13.3333L11.8946 17.412C10.7608 18.2298 9.39785 18.6689 7.99992 18.6667C7.50259 18.6667 7.01792 18.612 6.55125 18.5087ZM5.25992 18.08C4.40343 17.6927 3.63823 17.1291 3.01425 16.4261C2.39026 15.7231 1.92152 14.8964 1.63859 14H7.61525L5.25992 18.08ZM1.36659 12.6667C1.34436 12.4476 1.33325 12.2253 1.33325 12C1.33325 10.262 1.99859 8.67935 3.08792 7.49268L6.07525 12.6667H1.36659ZM4.10592 6.58868C5.23943 5.77081 6.60214 5.3315 7.99992 5.33335C8.49725 5.33335 8.98192 5.38802 9.44859 5.49135L6.45992 10.6667L4.10592 6.58868ZM10.7399 5.92002C11.5964 6.30734 12.3616 6.8709 12.9856 7.57392C13.6096 8.27693 14.0783 9.10361 14.3613 10H8.38459L10.7399 5.92002ZM14.6333 11.3333C14.6555 11.5525 14.6666 11.7747 14.6666 12C14.6692 13.6696 14.0427 15.2789 12.9119 16.5073L9.92459 11.3333H14.6333Z" fill="#CCCCCC"/>
</svg>
