<svg width="230" height="48" viewBox="0 0 230 48" fill="none" xmlns="http://www.w3.org/2000/svg">
<g clip-path="url(#clip0_591_691)">
<path d="M15.1311 36.0688C15.6735 36.324 16.1094 36.6812 16.4339 37.1354C16.7583 37.5896 16.9357 38.105 16.9661 38.6816H14.8625C14.8017 38.2785 14.6293 37.9621 14.3353 37.7376C14.0464 37.513 13.6561 37.4008 13.1695 37.4008C12.6828 37.4008 12.3432 37.4824 12.0847 37.6559C11.8211 37.8243 11.6944 38.054 11.6944 38.3397C11.6944 38.5643 11.7755 38.748 11.9428 38.8909C12.105 39.0338 12.3584 39.1613 12.698 39.2685C13.0377 39.3757 13.5293 39.4981 14.1782 39.6359C15.1869 39.8452 15.9067 40.1922 16.3426 40.677C16.7785 41.1618 16.9965 41.769 16.9965 42.4937C16.9965 43.0652 16.8343 43.5653 16.5099 43.994C16.1855 44.4227 15.7445 44.7493 15.1818 44.9789C14.6242 45.2085 14.0008 45.3208 13.3114 45.3208C12.5662 45.3208 11.8971 45.1932 11.3041 44.933C10.711 44.6727 10.2396 44.3053 9.89491 43.8256C9.55022 43.3459 9.3576 42.7846 9.33226 42.1365H11.4257C11.4866 42.5804 11.6944 42.9326 12.0594 43.1979C12.4192 43.4633 12.8907 43.596 13.4635 43.596C13.8791 43.596 14.2238 43.5041 14.4975 43.3153C14.7712 43.1265 14.9081 42.8815 14.9081 42.5855C14.9081 42.3457 14.8371 42.1467 14.6901 41.9885C14.5431 41.8303 14.315 41.6976 13.9957 41.5802C13.6763 41.4629 13.2353 41.3608 12.6676 41.2536C11.6437 41.0597 10.8834 40.7331 10.3765 40.2738C9.86956 39.8145 9.61612 39.1716 9.61612 38.3346C9.61612 37.7937 9.77832 37.3242 10.1027 36.9262C10.4271 36.5281 10.8681 36.2219 11.4308 36.0076C11.9884 35.7933 12.6169 35.6861 13.3114 35.6861C14.0058 35.6861 14.5888 35.8137 15.1362 36.0688H15.1311Z" fill="#595959"/>
<path d="M18.6341 44.8054C18.1475 44.5094 17.7724 44.0961 17.5037 43.5705C17.2351 43.0448 17.1033 42.4529 17.1033 41.7895C17.1033 41.1261 17.2351 40.5341 17.5037 40.0085C17.7724 39.4829 18.1475 39.0695 18.6341 38.7735C19.1207 38.4775 19.6682 38.3295 20.2916 38.3295C21.1331 38.3295 21.7616 38.6051 22.1722 39.1614V38.4877H24.1643V45.0861H22.1722V44.4125C21.7616 44.9687 21.1331 45.2443 20.2916 45.2443C19.6732 45.2443 19.1207 45.0963 18.6341 44.8003V44.8054ZM21.7667 43.0499C22.0556 42.7233 22.2026 42.3049 22.2026 41.7946C22.2026 41.2843 22.0556 40.8658 21.7667 40.5392C21.4778 40.2126 21.0875 40.0493 20.6008 40.0493C20.1142 40.0493 19.7543 40.2126 19.4705 40.5392C19.1866 40.8658 19.0447 41.2843 19.0447 41.7946C19.0447 42.3049 19.1866 42.7233 19.4705 43.0499C19.7543 43.3765 20.1294 43.5398 20.6008 43.5398C21.0723 43.5398 21.4727 43.3765 21.7667 43.0499Z" fill="#595959"/>
<path d="M31.4178 38.4928L28.8985 45.0912H26.8304L24.3111 38.4928H26.4705L27.9354 42.7948L29.4003 38.4928H31.4178Z" fill="#595959"/>
<path d="M33.4453 35.6555C33.6785 35.8903 33.79 36.1811 33.79 36.5333C33.79 36.8854 33.6734 37.1814 33.4453 37.411C33.2121 37.6457 32.9232 37.758 32.5734 37.758C32.2237 37.758 31.9297 37.6406 31.7016 37.411C31.4684 37.1762 31.3569 36.8854 31.3569 36.5333C31.3569 36.1811 31.4735 35.8903 31.7016 35.6555C31.9347 35.4208 32.2237 35.3085 32.5734 35.3085C32.9232 35.3085 33.2172 35.4259 33.4453 35.6555ZM33.567 45.1167H31.5749V38.4929H33.567V45.1167Z" fill="#595959"/>
<path d="M34.3623 38.4928H36.3544V39.1664C36.765 38.6102 37.3783 38.3346 38.1894 38.3346C38.6963 38.3346 39.1423 38.452 39.5326 38.6919C39.9229 38.9266 40.222 39.2685 40.4349 39.7125C40.6478 40.1565 40.7543 40.677 40.7543 41.2791V45.0963H38.7622V41.6159C38.7622 41.1107 38.6608 40.728 38.4682 40.4626C38.2705 40.1973 37.9866 40.0646 37.6115 40.0646C37.2364 40.0646 36.9171 40.2126 36.694 40.5035C36.471 40.7943 36.3595 41.1975 36.3595 41.7078V45.0963H34.3674V38.4979L34.3623 38.4928Z" fill="#595959"/>
<path d="M43.1072 47.6785C42.646 47.4641 42.2861 47.1784 42.0174 46.816C41.7488 46.4537 41.5764 46.0557 41.5004 45.6117H43.5128C43.6243 46.0761 44.0298 46.3108 44.7344 46.3108C45.15 46.3108 45.4896 46.1883 45.7431 45.9383C45.9965 45.6882 46.1233 45.3616 46.1233 44.9483V44.2492C45.7127 44.8054 45.0841 45.081 44.2427 45.081C43.6243 45.081 43.0718 44.9381 42.5851 44.6523C42.0985 44.3665 41.7234 43.9685 41.4548 43.4582C41.1861 42.9479 41.0543 42.3712 41.0543 41.7333C41.0543 41.0954 41.1861 40.4984 41.4548 39.9829C41.7234 39.4675 42.0985 39.0644 42.5851 38.7735C43.0718 38.4826 43.6192 38.3346 44.2427 38.3346C45.0841 38.3346 45.7127 38.6102 46.1233 39.1664V38.4928H48.1154V44.9687C48.1154 45.5556 47.9684 46.0761 47.6794 46.5405C47.3905 47.0048 46.9901 47.3621 46.4781 47.6172C45.9661 47.8724 45.3883 48 44.7394 48C44.0906 48 43.5685 47.8928 43.1123 47.6785H43.1072ZM45.7178 42.953C46.0067 42.6366 46.1537 42.2334 46.1537 41.7384C46.1537 41.2434 46.0067 40.8352 45.7178 40.5239C45.4288 40.2075 45.0385 40.0493 44.5519 40.0493C44.0653 40.0493 43.7054 40.2075 43.4215 40.5239C43.1376 40.8403 42.9957 41.2434 42.9957 41.7384C42.9957 42.2334 43.1376 42.6417 43.4215 42.953C43.7054 43.2694 44.0805 43.4276 44.5519 43.4276C45.0233 43.4276 45.4238 43.2694 45.7178 42.953Z" fill="#595959"/>
<path d="M51.3897 35.9107H54.8924C55.673 35.9107 56.3471 36.0485 56.9098 36.3291C57.4725 36.6047 57.9033 36.9977 58.2024 37.4978C58.5015 38.003 58.6485 38.5898 58.6485 39.2685C58.6485 39.9473 58.5015 40.5443 58.2024 41.0546C57.9033 41.5598 57.4725 41.9528 56.9098 42.2335C56.3471 42.509 55.673 42.6519 54.8924 42.6519H53.4274V45.0963H51.3897V35.9107ZM54.8011 40.8352C55.3739 40.8352 55.82 40.7025 56.1393 40.4321C56.4536 40.1616 56.6158 39.7738 56.6158 39.2736C56.6158 38.7735 56.4587 38.3857 56.1393 38.1254C55.82 37.8652 55.379 37.7325 54.8011 37.7325H53.4274V40.8403H54.8011V40.8352Z" fill="#595959"/>
<path d="M60.2449 44.8054C59.7278 44.5094 59.3223 44.0961 59.0334 43.5704C58.7445 43.0448 58.5975 42.4529 58.5975 41.7895C58.5975 41.126 58.7445 40.5341 59.0334 40.0085C59.3223 39.4828 59.7278 39.0695 60.2449 38.7735C60.7619 38.4775 61.3499 38.3295 62.0089 38.3295C62.6678 38.3295 63.2508 38.4775 63.7729 38.7735C64.2899 39.0695 64.6954 39.4828 64.9894 40.0085C65.2783 40.5341 65.4253 41.126 65.4253 41.7895C65.4253 42.0089 65.4101 42.2232 65.3797 42.4325H60.5794C60.6555 42.8152 60.8177 43.1112 61.0711 43.3204C61.3246 43.5296 61.6388 43.6368 62.0089 43.6368C62.2927 43.6368 62.5462 43.5909 62.7641 43.4939C62.9821 43.3969 63.1342 43.2745 63.2153 43.1163H65.2175C65.106 43.5347 64.8982 43.9073 64.589 44.2236C64.2848 44.54 63.9047 44.7901 63.4586 44.9738C63.0125 45.1524 62.5259 45.2443 62.0038 45.2443C61.3499 45.2443 60.7619 45.0963 60.2398 44.8003L60.2449 44.8054ZM63.4738 41.1414C63.3927 40.7433 63.2254 40.4422 62.972 40.233C62.7185 40.0289 62.3992 39.9217 62.0089 39.9217C61.6186 39.9217 61.3043 40.0238 61.0559 40.233C60.8075 40.4422 60.6453 40.7433 60.5642 41.1414H63.4738Z" fill="#595959"/>
<path d="M70.8238 38.7786C71.3509 39.0746 71.7666 39.4879 72.0657 40.0136C72.3647 40.5392 72.5117 41.1311 72.5117 41.7946C72.5117 42.458 72.3647 43.0499 72.0657 43.5755C71.7666 44.1012 71.3509 44.5094 70.8238 44.8105C70.2966 45.1065 69.6985 45.2545 69.0344 45.2545C68.3704 45.2545 67.7723 45.1065 67.2451 44.8105C66.7179 44.5145 66.3023 44.1012 66.0032 43.5755C65.7041 43.0499 65.5571 42.458 65.5571 41.7946C65.5571 41.1311 65.7041 40.5392 66.0032 40.0136C66.3023 39.4879 66.7128 39.0746 67.2451 38.7786C67.7723 38.4826 68.3704 38.3346 69.0344 38.3346C69.6985 38.3346 70.2966 38.4826 70.8238 38.7786ZM67.9091 40.5341C67.6202 40.8607 67.4783 41.2791 67.4783 41.7895C67.4783 42.2998 67.6202 42.7182 67.9091 43.0448C68.1981 43.3714 68.5732 43.5347 69.0344 43.5347C69.4957 43.5347 69.8708 43.3714 70.1597 43.0448C70.4487 42.7182 70.5906 42.2998 70.5906 41.7895C70.5906 41.2791 70.4487 40.8607 70.1597 40.5341C69.8708 40.2075 69.4957 40.0442 69.0344 40.0442C68.5732 40.0442 68.1981 40.2075 67.9091 40.5341Z" fill="#595959"/>
<path d="M72.973 38.4928H74.9651V39.1664C75.3757 38.6102 75.9992 38.3346 76.8457 38.3346C77.4641 38.3346 78.0166 38.4826 78.5033 38.7786C78.9899 39.0746 79.365 39.4879 79.6336 40.0136C79.9023 40.5392 80.0341 41.1311 80.0341 41.7946C80.0341 42.458 79.8972 43.0499 79.6336 43.5755C79.365 44.1012 78.9899 44.5094 78.5033 44.8105C78.0166 45.1065 77.4641 45.2545 76.8457 45.2545C76.0043 45.2545 75.3757 44.9789 74.9651 44.4227V47.8469H72.973V38.4928ZM77.6618 43.0499C77.9457 42.7233 78.0876 42.3049 78.0876 41.7946C78.0876 41.2842 77.9457 40.8658 77.6618 40.5392C77.3779 40.2126 77.0028 40.0493 76.5314 40.0493C76.06 40.0493 75.6596 40.2126 75.3656 40.5392C75.0766 40.8658 74.9296 41.2842 74.9296 41.7946C74.9296 42.3049 75.0766 42.7233 75.3656 43.0499C75.6545 43.3765 76.0448 43.5398 76.5314 43.5398C77.0181 43.5398 77.3779 43.3765 77.6618 43.0499Z" fill="#595959"/>
<path d="M82.4824 45.0912H80.4903V35.63H82.4824V45.0912Z" fill="#595959"/>
<path d="M84.5916 44.8054C84.0745 44.5094 83.669 44.0961 83.3801 43.5705C83.0912 43.0448 82.9442 42.4529 82.9442 41.7895C82.9442 41.1261 83.0912 40.5341 83.3801 40.0085C83.669 39.4829 84.0745 39.0695 84.5916 38.7735C85.1086 38.4775 85.6966 38.3295 86.3556 38.3295C87.0145 38.3295 87.5975 38.4775 88.1196 38.7735C88.6366 39.0695 89.0421 39.4829 89.3311 40.0085C89.62 40.5341 89.767 41.1261 89.767 41.7895C89.767 42.0089 89.7518 42.2232 89.7214 42.4325H84.9211C84.9971 42.8152 85.1593 43.1112 85.4128 43.3204C85.6662 43.5296 85.9805 43.6368 86.3505 43.6368C86.6344 43.6368 86.8878 43.5909 87.1058 43.4939C87.3238 43.4021 87.4758 43.2745 87.5569 43.1163H89.5592C89.4476 43.5347 89.2398 43.9073 88.9306 44.2237C88.6265 44.5401 88.2463 44.7901 87.8002 44.9738C87.3542 45.1524 86.8675 45.2443 86.3454 45.2443C85.6916 45.2443 85.1035 45.0963 84.5814 44.8003L84.5916 44.8054ZM87.8205 41.1414C87.7394 40.7433 87.5721 40.4422 87.3187 40.233C87.0652 40.0289 86.7459 39.9217 86.3556 39.9217C85.9653 39.9217 85.651 40.0238 85.4026 40.233C85.1542 40.4422 84.992 40.7433 84.9109 41.1414H87.8205Z" fill="#595959"/>
<path d="M96.4777 40.2177H95.2257V45.0963H93.2336V40.2177H92.1387V38.4928H93.2336V37.8396C93.2336 37.1711 93.4313 36.6302 93.8267 36.2118C94.222 35.7933 94.7644 35.5892 95.4589 35.5892C95.8188 35.5892 96.1178 35.6096 96.3662 35.6555V37.3344C96.2699 37.3191 96.0976 37.314 95.8492 37.314C95.6566 37.314 95.5045 37.3702 95.3879 37.4875C95.2764 37.6049 95.2206 37.758 95.2206 37.957V38.498H96.4727V40.2228L96.4777 40.2177Z" fill="#595959"/>
<path d="M96.6809 38.4928H98.673V39.1664C99.0835 38.6102 99.6969 38.3346 100.508 38.3346C100.868 38.3346 101.152 38.3704 101.37 38.4469L101.39 40.33C101.106 40.182 100.766 40.1054 100.371 40.1054C99.8439 40.1054 99.4232 40.2483 99.1241 40.5341C98.82 40.8199 98.673 41.2128 98.673 41.718V45.0963H96.6809V38.4928Z" fill="#595959"/>
<path d="M106.337 38.7786C106.864 39.0746 107.28 39.4879 107.579 40.0136C107.878 40.5392 108.025 41.1311 108.025 41.7946C108.025 42.458 107.878 43.0499 107.579 43.5755C107.28 44.1012 106.864 44.5094 106.337 44.8105C105.81 45.1065 105.212 45.2545 104.548 45.2545C103.883 45.2545 103.285 45.1065 102.758 44.8105C102.231 44.5145 101.815 44.1012 101.516 43.5755C101.217 43.0499 101.07 42.458 101.07 41.7946C101.07 41.1311 101.217 40.5392 101.516 40.0136C101.815 39.4879 102.231 39.0746 102.758 38.7786C103.285 38.4826 103.883 38.3346 104.548 38.3346C105.212 38.3346 105.81 38.4826 106.337 38.7786ZM103.422 40.5341C103.133 40.8607 102.991 41.2791 102.991 41.7895C102.991 42.2998 103.133 42.7182 103.422 43.0448C103.711 43.3714 104.086 43.5347 104.548 43.5347C105.009 43.5347 105.384 43.3714 105.673 43.0448C105.962 42.7182 106.104 42.2998 106.104 41.7895C106.104 41.2791 105.962 40.8607 105.673 40.5341C105.384 40.2075 105.009 40.0442 104.548 40.0442C104.086 40.0442 103.711 40.2075 103.422 40.5341Z" fill="#595959"/>
<path d="M108.486 38.4928H110.479V39.1256C110.681 38.8552 110.909 38.6561 111.168 38.5286C111.426 38.401 111.731 38.3346 112.09 38.3346C112.501 38.3346 112.871 38.4163 113.211 38.5745C113.55 38.7327 113.824 38.9725 114.037 39.2787C114.285 38.9623 114.584 38.7276 114.944 38.5694C115.304 38.4112 115.725 38.3346 116.222 38.3346C116.718 38.3346 117.159 38.452 117.54 38.6919C117.92 38.9266 118.214 39.2685 118.422 39.7125C118.629 40.1565 118.736 40.677 118.736 41.2791V45.0963H116.744V41.6159C116.744 41.1107 116.653 40.728 116.465 40.4626C116.277 40.1973 116.004 40.0646 115.639 40.0646C115.319 40.0646 115.071 40.1871 114.894 40.4371C114.716 40.6872 114.625 41.0444 114.61 41.519V45.1014H112.618V41.621C112.618 41.1158 112.526 40.7331 112.339 40.4677C112.151 40.2024 111.878 40.0697 111.513 40.0697C111.193 40.0697 110.945 40.1922 110.767 40.4422C110.59 40.6923 110.499 41.0495 110.484 41.5241V45.1065H108.491V38.5081L108.486 38.4928Z" fill="#595959"/>
<path d="M129.954 35.9107V45.0912H127.916V41.3608H123.886V45.0912H121.848V35.9107H123.886V39.5492H127.916V35.9107H129.954Z" fill="#595959"/>
<path d="M132.001 44.8054C131.514 44.5094 131.139 44.0961 130.871 43.5704C130.602 43.0448 130.47 42.4529 130.47 41.7895C130.47 41.126 130.607 40.5341 130.871 40.0085C131.139 39.4828 131.514 39.0695 132.001 38.7735C132.488 38.4775 133.035 38.3295 133.658 38.3295C134.5 38.3295 135.128 38.6051 135.539 39.1613V38.4877H137.531V45.0861H135.539V44.4125C135.128 44.9687 134.5 45.2443 133.658 45.2443C133.04 45.2443 132.488 45.0963 132.001 44.8003V44.8054ZM135.134 43.0499C135.422 42.7233 135.569 42.3049 135.569 41.7946C135.569 41.2842 135.422 40.8658 135.134 40.5392C134.845 40.2126 134.454 40.0493 133.973 40.0493C133.491 40.0493 133.126 40.2126 132.842 40.5392C132.559 40.8658 132.417 41.2842 132.417 41.7946C132.417 42.3049 132.559 42.7233 132.842 43.0499C133.126 43.3765 133.501 43.5398 133.973 43.5398C134.444 43.5398 134.845 43.3765 135.134 43.0499Z" fill="#595959"/>
<path d="M144.085 43.3918V45.0912H137.932V43.7491L141.176 40.1922H138.079V38.4928H143.872V39.835L140.628 43.3918H144.085Z" fill="#595959"/>
<path d="M145.494 44.8054C145.008 44.5094 144.633 44.0961 144.364 43.5704C144.095 43.0448 143.964 42.4529 143.964 41.7895C143.964 41.126 144.101 40.5341 144.364 40.0085C144.633 39.4828 145.008 39.0695 145.494 38.7735C145.981 38.4775 146.529 38.3295 147.152 38.3295C147.993 38.3295 148.622 38.6051 149.033 39.1613V38.4877H151.025V45.0861H149.033V44.4125C148.622 44.9687 147.993 45.2443 147.152 45.2443C146.534 45.2443 145.981 45.0963 145.494 44.8003V44.8054ZM148.627 43.0499C148.916 42.7233 149.063 42.3049 149.063 41.7946C149.063 41.2842 148.916 40.8658 148.627 40.5392C148.338 40.2126 147.948 40.0493 147.466 40.0493C146.985 40.0493 146.62 40.2126 146.336 40.5392C146.052 40.8658 145.91 41.2842 145.91 41.7946C145.91 42.3049 146.052 42.7233 146.336 43.0499C146.62 43.3765 146.995 43.5398 147.466 43.5398C147.938 43.5398 148.338 43.3765 148.627 43.0499Z" fill="#595959"/>
<path d="M151.815 38.4928H153.807V39.1664C154.218 38.6102 154.831 38.3346 155.642 38.3346C156.002 38.3346 156.286 38.3704 156.504 38.4469L156.524 40.33C156.24 40.182 155.901 40.1054 155.505 40.1054C154.978 40.1054 154.557 40.2483 154.258 40.5341C153.954 40.8199 153.807 41.2128 153.807 41.718V45.0963H151.815V38.4928Z" fill="#595959"/>
<path d="M157.737 44.8054C157.25 44.5094 156.875 44.0961 156.606 43.5705C156.338 43.0448 156.206 42.4529 156.206 41.7895C156.206 41.1261 156.343 40.5341 156.606 40.0085C156.875 39.4829 157.25 39.0695 157.737 38.7735C158.223 38.4775 158.771 38.3296 159.394 38.3296C160.236 38.3296 160.864 38.6051 161.275 39.1614V35.6249H163.267V45.0861H161.275V44.4125C160.864 44.9687 160.236 45.2443 159.394 45.2443C158.776 45.2443 158.223 45.0963 157.737 44.8003V44.8054ZM160.869 43.0499C161.158 42.7233 161.305 42.3049 161.305 41.7946C161.305 41.2843 161.158 40.8658 160.869 40.5392C160.58 40.2126 160.19 40.0493 159.708 40.0493C159.227 40.0493 158.862 40.2126 158.578 40.5392C158.294 40.8658 158.152 41.2843 158.152 41.7946C158.152 42.3049 158.294 42.7233 158.578 43.0499C158.862 43.3765 159.237 43.5398 159.708 43.5398C160.18 43.5398 160.58 43.3765 160.869 43.0499Z" fill="#595959"/>
<path d="M168.989 38.7786C169.516 39.0746 169.931 39.4879 170.23 40.0136C170.529 40.5392 170.676 41.1311 170.676 41.7946C170.676 42.458 170.529 43.0499 170.23 43.5755C169.931 44.1012 169.516 44.5094 168.989 44.8105C168.461 45.1065 167.863 45.2545 167.199 45.2545C166.535 45.2545 165.937 45.1065 165.41 44.8105C164.883 44.5145 164.467 44.1012 164.168 43.5755C163.869 43.0499 163.722 42.458 163.722 41.7946C163.722 41.1311 163.869 40.5392 164.168 40.0136C164.467 39.4879 164.883 39.0746 165.41 38.7786C165.937 38.4826 166.535 38.3346 167.199 38.3346C167.863 38.3346 168.461 38.4826 168.989 38.7786ZM166.074 40.5341C165.785 40.8607 165.643 41.2791 165.643 41.7895C165.643 42.2998 165.785 42.7182 166.074 43.0448C166.363 43.3714 166.738 43.5347 167.199 43.5347C167.66 43.5347 168.036 43.3714 168.324 43.0448C168.613 42.7182 168.755 42.2998 168.755 41.7895C168.755 41.2791 168.613 40.8607 168.324 40.5341C168.036 40.2075 167.66 40.0442 167.199 40.0442C166.738 40.0442 166.363 40.2075 166.074 40.5341Z" fill="#595959"/>
<path d="M172.258 44.8973C171.868 44.6625 171.569 44.3206 171.356 43.8766C171.143 43.4327 171.037 42.9122 171.037 42.31V38.4928H173.029V41.9732C173.029 42.4784 173.13 42.8611 173.323 43.1265C173.52 43.3918 173.804 43.5245 174.179 43.5245C174.554 43.5245 174.874 43.3765 175.097 43.0857C175.32 42.7948 175.431 42.3916 175.431 41.8813V38.4928H177.424V45.0912H175.431V44.4176C175.021 44.9738 174.407 45.2494 173.596 45.2494C173.09 45.2494 172.643 45.132 172.253 44.8922L172.258 44.8973Z" fill="#595959"/>
<path d="M182.452 38.6C182.898 38.7786 183.258 39.0236 183.527 39.3502C183.795 39.6717 183.942 40.0493 183.963 40.478H182.037C182.006 40.2738 181.89 40.1156 181.682 39.9983C181.474 39.8809 181.226 39.8248 180.926 39.8248C180.627 39.8248 180.379 39.8707 180.181 39.9677C179.984 40.0595 179.887 40.182 179.887 40.3351C179.887 40.4933 180.004 40.6209 180.232 40.7178C180.465 40.8148 180.866 40.9117 181.438 40.9985C182.386 41.1414 183.06 41.3761 183.466 41.7078C183.866 42.0395 184.069 42.4937 184.069 43.0704C184.069 43.5041 183.932 43.8869 183.654 44.2186C183.38 44.5503 183.005 44.8054 182.533 44.984C182.062 45.1626 181.55 45.2545 180.987 45.2545C180.425 45.2545 179.908 45.1626 179.446 44.9789C178.985 44.7952 178.62 44.535 178.351 44.1981C178.078 43.8613 177.931 43.4684 177.91 43.0142H179.837C179.867 43.2234 179.994 43.397 180.217 43.5245C180.44 43.6572 180.708 43.7236 181.023 43.7236C181.337 43.7236 181.611 43.6725 181.819 43.5654C182.026 43.4582 182.133 43.3306 182.133 43.1826C182.133 43.0244 182.011 42.8917 181.763 42.7846C181.514 42.6774 181.114 42.5805 180.556 42.4988C179.7 42.3712 179.051 42.1518 178.615 41.8456C178.179 41.5394 177.961 41.0699 177.961 40.4371C177.961 40.0187 178.093 39.6462 178.356 39.3349C178.62 39.0185 178.98 38.7735 179.436 38.6051C179.892 38.4316 180.399 38.3449 180.957 38.3449C181.514 38.3449 181.996 38.4316 182.447 38.6102L182.452 38.6Z" fill="#595959"/>
<path d="M189.062 35.9107V43.2796H193.614V45.0912H187.024V35.9107H189.062Z" fill="#595959"/>
<path d="M195.039 44.8054C194.552 44.5094 194.177 44.0961 193.909 43.5705C193.64 43.0448 193.508 42.4529 193.508 41.7895C193.508 41.1261 193.645 40.5341 193.909 40.0085C194.177 39.4829 194.552 39.0695 195.039 38.7735C195.526 38.4775 196.073 38.3295 196.697 38.3295C197.538 38.3295 198.167 38.6051 198.577 39.1614V38.4877H200.569V45.0861H198.577V44.4125C198.167 44.9687 197.538 45.2443 196.697 45.2443C196.078 45.2443 195.526 45.0963 195.039 44.8003V44.8054ZM198.172 43.0499C198.461 42.7233 198.608 42.3049 198.608 41.7946C198.608 41.2843 198.461 40.8658 198.172 40.5392C197.883 40.2126 197.492 40.0493 197.011 40.0493C196.529 40.0493 196.164 40.2126 195.88 40.5392C195.597 40.8658 195.455 41.2843 195.455 41.7946C195.455 42.3049 195.597 42.7233 195.88 43.0499C196.164 43.3765 196.539 43.5398 197.011 43.5398C197.482 43.5398 197.883 43.3765 198.172 43.0499Z" fill="#595959"/>
<path d="M203.352 44.4176V45.0912H201.359V35.63H203.352V39.1665C203.762 38.6102 204.386 38.3347 205.232 38.3347C205.85 38.3347 206.403 38.4827 206.89 38.7786C207.376 39.0746 207.751 39.488 208.02 40.0136C208.289 40.5392 208.42 41.1312 208.42 41.7946C208.42 42.458 208.289 43.05 208.02 43.5756C207.751 44.1012 207.376 44.5094 206.89 44.8105C206.403 45.1065 205.85 45.2545 205.232 45.2545C204.391 45.2545 203.762 44.9789 203.352 44.4227V44.4176ZM206.048 43.05C206.332 42.7234 206.474 42.3049 206.474 41.7946C206.474 41.2843 206.332 40.8658 206.048 40.5392C205.764 40.2126 205.389 40.0493 204.918 40.0493C204.446 40.0493 204.046 40.2126 203.752 40.5392C203.463 40.8658 203.316 41.2843 203.316 41.7946C203.316 42.3049 203.463 42.7234 203.752 43.05C204.041 43.3766 204.431 43.5399 204.918 43.5399C205.404 43.5399 205.764 43.3766 206.048 43.05Z" fill="#595959"/>
<path d="M213.808 38.7786C214.335 39.0746 214.751 39.4879 215.05 40.0136C215.349 40.5392 215.496 41.1311 215.496 41.7946C215.496 42.458 215.349 43.0499 215.05 43.5755C214.751 44.1012 214.335 44.5094 213.808 44.8105C213.281 45.1065 212.683 45.2545 212.019 45.2545C211.355 45.2545 210.757 45.1065 210.23 44.8105C209.702 44.5145 209.287 44.1012 208.988 43.5755C208.689 43.0499 208.542 42.458 208.542 41.7946C208.542 41.1311 208.689 40.5392 208.988 40.0136C209.287 39.4879 209.702 39.0746 210.23 38.7786C210.757 38.4826 211.355 38.3346 212.019 38.3346C212.683 38.3346 213.281 38.4826 213.808 38.7786ZM210.894 40.5341C210.605 40.8607 210.463 41.2791 210.463 41.7895C210.463 42.2998 210.605 42.7182 210.894 43.0448C211.183 43.3714 211.558 43.5347 212.019 43.5347C212.48 43.5347 212.855 43.3714 213.144 43.0448C213.433 42.7182 213.575 42.2998 213.575 41.7895C213.575 41.2791 213.433 40.8607 213.144 40.5341C212.855 40.2075 212.48 40.0442 212.019 40.0442C211.558 40.0442 211.183 40.2075 210.894 40.5341Z" fill="#595959"/>
<path d="M215.958 38.4928H217.95V39.1664C218.36 38.6102 218.974 38.3346 219.785 38.3346C220.145 38.3346 220.428 38.3704 220.646 38.4469L220.667 40.33C220.383 40.182 220.043 40.1054 219.648 40.1054C219.121 40.1054 218.7 40.2483 218.401 40.5341C218.097 40.8199 217.95 41.2128 217.95 41.718V45.0963H215.958V38.4928Z" fill="#595959"/>
<path d="M133.838 5.55216C134.66 5.94511 135.293 6.49624 135.749 7.20047C136.2 7.90471 136.429 8.7161 136.429 9.62956C136.429 10.2011 136.307 10.7267 136.059 11.2115C135.81 11.6963 135.491 12.0893 135.095 12.3904C134.7 12.6914 134.279 12.8854 133.838 12.9619C134.33 13.0385 134.807 13.2273 135.268 13.5335C135.729 13.8396 136.104 14.2377 136.403 14.7327C136.702 15.2277 136.849 15.7941 136.849 16.4269C136.849 17.4016 136.596 18.2589 136.094 18.9887C135.592 19.7184 134.908 20.2849 134.041 20.6829C133.174 21.081 132.211 21.28 131.142 21.28C129.464 21.28 128.121 20.8411 127.117 19.9685C126.108 19.0908 125.54 17.9017 125.414 16.3912H128.8C128.861 17.024 129.094 17.5139 129.489 17.8558C129.885 18.1977 130.437 18.3712 131.142 18.3712C131.846 18.3712 132.419 18.1926 132.85 17.8405C133.286 17.4833 133.504 17.024 133.504 16.4524C133.504 15.8197 133.26 15.3298 132.774 14.9878C132.287 14.6459 131.638 14.4724 130.817 14.4724H129.286V11.6555H130.817C131.512 11.6555 132.054 11.482 132.454 11.1299C132.85 10.7829 133.048 10.3083 133.048 9.71121C133.048 9.11415 132.87 8.69059 132.51 8.35888C132.15 8.02718 131.649 7.86388 131.01 7.86388C130.371 7.86388 129.895 8.07821 129.555 8.51198C129.215 8.94574 129.043 9.45606 129.043 10.0531H125.657C125.657 9.07843 125.885 8.20579 126.336 7.43522C126.787 6.66975 127.426 6.06248 128.247 5.62871C129.068 5.18984 129.991 4.97041 131.025 4.97041C132.059 4.97041 133.022 5.16943 133.843 5.56237L133.838 5.55216Z" fill="#FFC20E"/>
<path d="M137.751 5.37866H143.728C145.405 5.37866 146.865 5.70526 148.112 6.35846C149.359 7.01166 150.317 7.92512 150.986 9.09884C151.655 10.2726 151.99 11.6198 151.99 13.1456C151.99 14.6715 151.655 16.0187 150.986 17.1924C150.317 18.3661 149.359 19.2745 148.112 19.9226C146.865 20.5707 145.4 20.8922 143.728 20.8922H137.751V5.37866ZM143.783 17.8252C145.269 17.8252 146.434 17.4169 147.281 16.5953C148.122 15.7788 148.548 14.6255 148.548 13.1405C148.548 11.6555 148.127 10.5022 147.281 9.67549C146.434 8.84878 145.269 8.44054 143.783 8.44054H141.193V17.8252H143.783Z" fill="#FFC20E"/>
<path d="M171.668 5.37865L165.58 20.8921H161.875L155.787 5.37865H159.68L163.877 16.7994L168.054 5.37865H171.668Z" fill="#FFC20E"/>
<path d="M175.465 5.37865V20.8921H172.023V5.37865H175.465Z" fill="#FFC20E"/>
<path d="M186.073 5.64404C186.991 6.07781 187.726 6.67487 188.273 7.44034C188.821 8.20581 189.12 9.07844 189.171 10.0582H185.617C185.516 9.37442 185.222 8.8386 184.73 8.46097C184.238 8.07823 183.585 7.88942 182.763 7.88942C181.942 7.88942 181.369 8.0323 180.928 8.31808C180.487 8.60385 180.269 8.98659 180.269 9.47138C180.269 9.85412 180.406 10.1654 180.685 10.4053C180.964 10.6451 181.39 10.8594 181.962 11.0431C182.535 11.2269 183.372 11.431 184.467 11.6606C186.17 12.0178 187.386 12.6047 188.126 13.4212C188.861 14.2377 189.231 15.2634 189.231 16.4933C189.231 17.4578 188.958 18.2998 188.41 19.0244C187.863 19.7491 187.118 20.3002 186.17 20.6881C185.227 21.0759 184.173 21.2698 183.012 21.2698C181.75 21.2698 180.619 21.0504 179.621 20.6115C178.617 20.1726 177.826 19.5501 177.238 18.7387C176.65 17.9273 176.336 16.973 176.285 15.886H179.818C179.92 16.6362 180.275 17.2332 180.888 17.6823C181.501 18.1314 182.292 18.3559 183.26 18.3559C183.965 18.3559 184.548 18.1977 185.009 17.8813C185.47 17.5649 185.698 17.1516 185.698 16.6464C185.698 16.2381 185.577 15.9064 185.328 15.636C185.08 15.3706 184.69 15.141 184.157 14.9521C183.62 14.7633 182.875 14.5796 181.917 14.401C180.188 14.0693 178.901 13.5182 178.039 12.7476C177.182 11.9719 176.752 10.885 176.752 9.47649C176.752 8.56303 177.025 7.77204 177.573 7.09843C178.12 6.42482 178.865 5.9094 179.813 5.54708C180.761 5.18476 181.815 5.00615 182.991 5.00615C184.167 5.00615 185.151 5.22048 186.073 5.65425V5.64404Z" fill="#FFC20E"/>
<path d="M193.5 5.37865V20.8921H190.058V5.37865H193.5Z" fill="#FFC20E"/>
<path d="M198.407 20.2134C197.14 19.5092 196.147 18.5396 195.432 17.2996C194.712 16.0646 194.352 14.6714 194.352 13.1201C194.352 11.5687 194.712 10.1807 195.432 8.94064C196.152 7.70568 197.14 6.73099 198.407 6.02676C199.675 5.32252 201.094 4.97041 202.67 4.97041C204.247 4.97041 205.666 5.32252 206.933 6.02676C208.201 6.73099 209.194 7.70058 209.909 8.94064C210.629 10.1756 210.983 11.5687 210.983 13.1201C210.983 14.6714 210.623 16.0595 209.909 17.2996C209.189 18.5345 208.195 19.5092 206.933 20.2134C205.666 20.9177 204.247 21.2698 202.67 21.2698C201.094 21.2698 199.675 20.9177 198.407 20.2134ZM205.169 17.5037C205.914 17.075 206.497 16.4729 206.918 15.7074C207.339 14.9419 207.552 14.0795 207.552 13.1303C207.552 12.1811 207.339 11.3034 206.918 10.543C206.497 9.78266 205.914 9.18559 205.169 8.75182C204.424 8.32316 203.593 8.10373 202.675 8.10373C201.758 8.10373 200.921 8.31806 200.181 8.75182C199.436 9.18559 198.853 9.77755 198.433 10.543C198.012 11.3085 197.799 12.1658 197.799 13.1303C197.799 14.0948 198.012 14.9419 198.433 15.7074C198.853 16.4729 199.436 17.075 200.181 17.5037C200.927 17.9375 201.758 18.1518 202.675 18.1518C203.593 18.1518 204.429 17.9375 205.169 17.5037Z" fill="#FFC20E"/>
<path d="M211.839 5.37867H214.714L222.408 14.7021V5.18986H225.85V20.7034H222.976L215.281 11.3799V20.8973H211.839V5.37867Z" fill="#FFC20E"/>
<path d="M80.6397 20.2134C79.3877 19.5092 78.4043 18.5396 77.6896 17.2996C76.9748 16.0646 76.62 14.6714 76.62 13.1201C76.62 11.5687 76.9748 10.1807 77.6896 8.94064C78.3992 7.70568 79.3826 6.73099 80.6397 6.02676C81.8917 5.32252 83.3009 4.97041 84.8672 4.97041C86.2409 4.97041 87.4726 5.22556 88.5625 5.73077C89.6523 6.23598 90.5394 6.93511 91.2186 7.82306C91.8978 8.711 92.3439 9.70611 92.5619 10.8135H89.0846C88.897 10.0531 88.4256 9.42033 87.6754 8.91002C86.9252 8.40481 86.0128 8.14966 84.9432 8.14966C84.0207 8.14966 83.1894 8.36399 82.4493 8.78755C81.7042 9.21111 81.1212 9.80307 80.7005 10.5583C80.2798 11.3136 80.0669 12.1658 80.0669 13.1201C80.0669 14.0744 80.2798 14.9113 80.7005 15.6717C81.1212 16.432 81.7042 17.024 82.4493 17.4527C83.1944 17.8762 84.0257 18.0905 84.9432 18.0905C85.6478 18.0905 86.3118 17.9528 86.9353 17.6721C87.5588 17.3914 88.0758 17.0291 88.4864 16.5851C88.897 16.1411 89.1454 15.6819 89.2316 15.2124H92.7089C92.5467 16.2636 92.1107 17.2536 91.4061 18.1824C90.7016 19.1112 89.779 19.8562 88.6385 20.4176C87.498 20.984 86.2409 21.2647 84.8672 21.2647C83.306 21.2647 81.8968 20.9126 80.6397 20.2083V20.2134Z" fill="#595959"/>
<path d="M98.082 5.37865V17.8252H105.777V20.887H94.6402V5.37865H98.082Z" fill="#595959"/>
<path d="M107.459 5.37865H118.915V8.38439H110.901V11.5432H118.256V14.549H110.901V17.8813H119.088V20.887H107.459V5.37865Z" fill="#595959"/>
<path d="M64.5309 5.21532V9.50704C64.5309 10.7879 63.5172 11.8239 62.2702 11.8239H26.2249C26.3668 12.7781 26.4479 13.7937 26.4479 14.8092C26.4479 15.8247 26.3668 16.8402 26.2249 17.7945H65.1544C68.0082 17.7945 70.3248 15.4216 70.3248 12.4975V5.21532H64.5309Z" fill="#595959"/>
<path d="M58.0814 -0.00012207L54.4568 1.65284L58.2698 10.1269L61.8943 8.47398L58.0814 -0.00012207Z" fill="#F05353"/>
<path d="M53.3387 0.821546H49.3596V10.1245H53.3387V0.821546Z" fill="#595959"/>
<path d="M19.9596 17.3557C18.8749 19.6878 16.457 21.1932 13.8059 21.1932C10.1005 21.1932 7.08449 18.2896 7.08449 14.7174C7.08449 11.1452 10.1005 8.2415 13.8059 8.2415C16.4874 8.2415 18.9104 9.76733 19.985 12.1352L20.2536 12.7322L25.6723 10.6502L25.3783 9.97656C23.4065 5.46029 18.8647 2.54131 13.8009 2.54131C6.87667 2.5362 1.23999 8.00165 1.23999 14.7174C1.23999 21.4331 6.87667 26.8985 13.8059 26.8985C18.7634 26.8985 23.2697 24.0612 25.2871 19.6725L25.5912 19.0142L20.2486 16.7433L19.9647 17.3506L19.9596 17.3557Z" fill="#595959"/>
<path d="M228.76 30.731H1.23999V31.5577H228.76V30.731Z" fill="#595959"/>
</g>
<defs>
<clipPath id="clip0_591_691">
<rect width="230" height="48" fill="white"/>
</clipPath>
</defs>
</svg>
