<svg width="44" height="44" viewBox="0 0 44 44" fill="none" xmlns="http://www.w3.org/2000/svg">
<rect width="44" height="44" rx="4" fill="#F4F4F4"/>
<path d="M20.0385 15.1367V33.1479C20.0385 35.1363 18.4246 36.7502 16.4362 36.7502C14.4479 36.7502 12.834 35.1363 12.834 33.1479V18.739C12.834 15.1367 20.0385 15.1367 20.0385 15.1367Z" fill="url(#paint0_linear_307_11942)"/>
<path d="M31.1672 16.9844C31.1672 21.1148 28.9385 25.6148 24.6053 25.8797C24.45 25.8895 24.2979 25.8878 24.1458 25.8829C24.0657 25.8813 23.9856 25.8699 23.9038 25.8764C23.8008 25.8846 23.6978 25.8862 23.5948 25.8862C23.5245 25.8862 23.4542 25.8862 23.3822 25.8862C23.2808 25.8862 23.1795 25.8862 23.0781 25.8862C22.7854 25.8862 22.4862 25.8862 22.1902 25.8862V18.7226C23.1582 18.7226 23.9431 17.9377 23.9431 16.9697C23.9431 16.0017 23.1582 15.1531 22.1902 15.1531H19.8895C18.7809 15.1809 12.8633 15.4883 12.8633 18.752V11.5476C12.8633 9.55921 14.4772 7.94531 16.4655 7.94531H22.1853C23.186 7.94531 24.136 8.10719 25.0811 8.43258C25.7041 8.64679 26.3026 8.93131 26.8618 9.27797C27.421 9.62462 27.9345 10.0252 28.4038 10.4782C28.8731 10.9327 29.2933 11.4364 29.6547 11.9809C30.016 12.5254 30.3234 13.1173 30.5605 13.7305C30.7976 14.3437 30.9742 15.0092 31.0707 15.6747C31.1345 16.108 31.1655 16.5462 31.1655 16.9844H31.1672Z" fill="url(#paint1_linear_307_11942)"/>
<path d="M24.4263 18.6836H18.53C16.5405 18.6836 14.9277 20.2964 14.9277 22.2858C14.9277 24.2753 16.5405 25.8881 18.53 25.8881H24.4263C26.4158 25.8881 28.0286 24.2753 28.0286 22.2858C28.0286 20.2964 26.4158 18.6836 24.4263 18.6836Z" fill="url(#paint2_linear_307_11942)"/>
<defs>
<linearGradient id="paint0_linear_307_11942" x1="16.4362" y1="27.7846" x2="16.4362" y2="20.5801" gradientUnits="userSpaceOnUse">
<stop stop-color="#525252"/>
<stop offset="1"/>
</linearGradient>
<linearGradient id="paint1_linear_307_11942" x1="12.8633" y1="16.9158" x2="31.1672" y2="16.9158" gradientUnits="userSpaceOnUse">
<stop stop-color="#525252"/>
<stop offset="0.08" stop-color="#464646"/>
<stop offset="0.32" stop-color="#282828"/>
<stop offset="0.56" stop-color="#111111"/>
<stop offset="0.79" stop-color="#040404"/>
<stop offset="1"/>
</linearGradient>
<linearGradient id="paint2_linear_307_11942" x1="14.9277" y1="22.2858" x2="28.0269" y2="22.2858" gradientUnits="userSpaceOnUse">
<stop stop-color="#F45151"/>
<stop offset="1" stop-color="#B71A1A"/>
</linearGradient>
</defs>
</svg>
