<svg width="522" height="29" viewBox="0 0 522 29" fill="none" xmlns="http://www.w3.org/2000/svg">
<path d="M258.506 6.97182C259.2 7.29792 259.757 7.75446 260.171 8.33492C260.586 8.91538 260.813 9.57411 260.852 10.3111H258.163C258.085 9.79586 257.865 9.39149 257.489 9.10452C257.12 8.81755 256.621 8.67407 255.999 8.67407C255.377 8.67407 254.943 8.77842 254.613 9.00017C254.276 9.2154 254.114 9.50889 254.114 9.87412C254.114 10.1611 254.218 10.3959 254.432 10.5785C254.639 10.7611 254.963 10.9242 255.397 11.0611C255.831 11.1981 256.459 11.3546 257.289 11.5307C258.578 11.7981 259.498 12.2416 260.055 12.8612C260.612 13.4808 260.89 14.2569 260.89 15.1831C260.89 15.9135 260.683 16.5527 260.269 17.1005C259.854 17.6484 259.29 18.0658 258.571 18.3593C257.859 18.6528 257.062 18.7963 256.181 18.7963C255.228 18.7963 254.373 18.6332 253.615 18.3006C252.857 17.968 252.255 17.4984 251.814 16.8853C251.374 16.2722 251.128 15.5548 251.095 14.7265H253.771C253.849 15.2939 254.114 15.744 254.581 16.0831C255.041 16.4222 255.643 16.5918 256.375 16.5918C256.906 16.5918 257.347 16.4744 257.697 16.2331C258.046 15.9918 258.221 15.6787 258.221 15.3004C258.221 14.9939 258.131 14.7396 257.943 14.5374C257.755 14.3352 257.463 14.1656 257.055 14.0156C256.647 13.8656 256.084 13.7352 255.358 13.5982C254.049 13.3504 253.078 12.933 252.43 12.346C251.782 11.759 251.458 10.9372 251.458 9.8676C251.458 9.17627 251.665 8.57624 252.08 8.06752C252.495 7.5588 253.058 7.16748 253.777 6.89355C254.49 6.61963 255.293 6.48267 256.181 6.48267C257.068 6.48267 257.813 6.64572 258.513 6.97182H258.506Z" fill="#595959"/>
<path d="M262.983 18.1375C262.362 17.7593 261.882 17.231 261.539 16.5592C261.195 15.8874 261.027 15.1309 261.027 14.283C261.027 13.4352 261.195 12.6786 261.539 12.0068C261.882 11.3351 262.362 10.8068 262.983 10.4285C263.605 10.0502 264.305 9.86108 265.102 9.86108C266.177 9.86108 266.981 10.2133 267.505 10.9242V10.0633H270.051V18.4963H267.505V17.6353C266.981 18.3462 266.177 18.6984 265.102 18.6984C264.312 18.6984 263.605 18.5093 262.983 18.131V18.1375ZM266.987 15.894C267.356 15.4766 267.544 14.9417 267.544 14.2895C267.544 13.6373 267.356 13.1025 266.987 12.6851C266.618 12.2677 266.119 12.059 265.497 12.059C264.875 12.059 264.415 12.2677 264.052 12.6851C263.69 13.1025 263.508 13.6373 263.508 14.2895C263.508 14.9417 263.69 15.4766 264.052 15.894C264.415 16.3114 264.895 16.5201 265.497 16.5201C266.1 16.5201 266.611 16.3114 266.987 15.894Z" fill="#595959"/>
<path d="M279.321 10.0696L276.102 18.5026H273.459L270.239 10.0696H272.999L274.871 15.5677L276.743 10.0696H279.321Z" fill="#595959"/>
<path d="M281.913 6.4435C282.211 6.74351 282.353 7.11526 282.353 7.56528C282.353 8.0153 282.204 8.39358 281.913 8.68707C281.615 8.98709 281.246 9.13057 280.799 9.13057C280.352 9.13057 279.976 8.98056 279.684 8.68707C279.386 8.38706 279.244 8.0153 279.244 7.56528C279.244 7.11526 279.393 6.74351 279.684 6.4435C279.982 6.14348 280.352 6 280.799 6C281.246 6 281.621 6.15001 281.913 6.4435ZM282.068 18.5353H279.522V10.0697H282.068V18.5353Z" fill="#595959"/>
<path d="M283.085 10.0696H285.631V10.9305C286.156 10.2196 286.939 9.86743 287.976 9.86743C288.624 9.86743 289.194 10.0174 289.693 10.324C290.192 10.624 290.574 11.061 290.846 11.6284C291.118 12.1958 291.254 12.861 291.254 13.6306V18.5091H288.708V14.0611C288.708 13.4154 288.578 12.9263 288.332 12.5871C288.08 12.248 287.717 12.0784 287.237 12.0784C286.758 12.0784 286.35 12.2675 286.065 12.6393C285.78 13.0111 285.637 13.5263 285.637 14.1785V18.5091H283.091V10.0761L283.085 10.0696Z" fill="#595959"/>
<path d="M294.261 21.8093C293.672 21.5353 293.212 21.1701 292.868 20.707C292.525 20.244 292.305 19.7353 292.208 19.1678H294.779C294.922 19.7613 295.44 20.0614 296.341 20.0614C296.872 20.0614 297.306 19.9048 297.63 19.5853C297.954 19.2657 298.116 18.8483 298.116 18.32V17.4265C297.591 18.1374 296.788 18.4896 295.712 18.4896C294.922 18.4896 294.216 18.3069 293.594 17.9417C292.972 17.5765 292.493 17.0678 292.149 16.4156C291.806 15.7633 291.637 15.0264 291.637 14.2111C291.637 13.3958 291.806 12.6328 292.149 11.974C292.493 11.3153 292.972 10.8001 293.594 10.4283C294.216 10.0566 294.916 9.86743 295.712 9.86743C296.788 9.86743 297.591 10.2196 298.116 10.9305V10.0696H300.662V18.3461C300.662 19.0961 300.474 19.7613 300.105 20.3549C299.735 20.9484 299.224 21.4049 298.569 21.731C297.915 22.0571 297.176 22.2202 296.347 22.2202C295.518 22.2202 294.851 22.0832 294.268 21.8093H294.261ZM297.598 15.7699C297.967 15.3655 298.155 14.8503 298.155 14.2176C298.155 13.585 297.967 13.0632 297.598 12.6654C297.228 12.261 296.729 12.0588 296.108 12.0588C295.486 12.0588 295.026 12.261 294.663 12.6654C294.3 13.0697 294.119 13.585 294.119 14.2176C294.119 14.8503 294.3 15.372 294.663 15.7699C295.026 16.1742 295.505 16.3764 296.108 16.3764C296.71 16.3764 297.222 16.1742 297.598 15.7699Z" fill="#595959"/>
<path d="M304.847 6.76953H309.323C310.321 6.76953 311.182 6.94563 311.901 7.30434C312.621 7.65653 313.171 8.15872 313.553 8.79788C313.936 9.44356 314.124 10.1936 314.124 11.061C314.124 11.9285 313.936 12.6915 313.553 13.3437C313.171 13.9894 312.621 14.4916 311.901 14.8503C311.182 15.2025 310.321 15.3851 309.323 15.3851H307.451V18.5092H304.847V6.76953ZM309.206 13.0633C309.939 13.0633 310.509 12.8937 310.917 12.5481C311.318 12.2024 311.526 11.7067 311.526 11.0675C311.526 10.4284 311.325 9.93271 310.917 9.60009C310.509 9.26747 309.945 9.0979 309.206 9.0979H307.451V13.0698H309.206V13.0633Z" fill="#595959"/>
<path d="M316.164 18.1375C315.503 17.7593 314.985 17.231 314.615 16.5592C314.246 15.8874 314.058 15.1309 314.058 14.283C314.058 13.4352 314.246 12.6786 314.615 12.0068C314.985 11.3351 315.503 10.8068 316.164 10.4285C316.825 10.0502 317.576 9.86108 318.418 9.86108C319.26 9.86108 320.005 10.0502 320.673 10.4285C321.334 10.8068 321.852 11.3351 322.228 12.0068C322.597 12.6786 322.785 13.4352 322.785 14.283C322.785 14.5635 322.765 14.8374 322.726 15.1048H316.591C316.689 15.5939 316.896 15.9722 317.22 16.2396C317.544 16.507 317.945 16.644 318.418 16.644C318.781 16.644 319.105 16.5853 319.384 16.4614C319.662 16.3375 319.856 16.1809 319.96 15.9787H322.519C322.377 16.5136 322.111 16.9897 321.716 17.394C321.327 17.7984 320.841 18.118 320.271 18.3528C319.701 18.581 319.079 18.6984 318.412 18.6984C317.576 18.6984 316.825 18.5093 316.157 18.131L316.164 18.1375ZM320.291 13.4547C320.187 12.946 319.973 12.5612 319.649 12.2938C319.325 12.0329 318.917 11.896 318.418 11.896C317.919 11.896 317.518 12.0264 317.2 12.2938C316.883 12.5612 316.676 12.946 316.572 13.4547H320.291Z" fill="#595959"/>
<path d="M329.684 10.4348C330.358 10.8131 330.889 11.3414 331.271 12.0132C331.654 12.6849 331.842 13.4415 331.842 14.2894C331.842 15.1372 331.654 15.8938 331.271 16.5656C330.889 17.2373 330.358 17.7591 329.684 18.1439C329.011 18.5222 328.246 18.7113 327.397 18.7113C326.549 18.7113 325.784 18.5222 325.111 18.1439C324.437 17.7656 323.906 17.2373 323.523 16.5656C323.141 15.8938 322.953 15.1372 322.953 14.2894C322.953 13.4415 323.141 12.6849 323.523 12.0132C323.906 11.3414 324.43 10.8131 325.111 10.4348C325.784 10.0566 326.549 9.86743 327.397 9.86743C328.246 9.86743 329.011 10.0566 329.684 10.4348ZM325.959 12.6784C325.59 13.0958 325.409 13.6306 325.409 14.2828C325.409 14.935 325.59 15.4699 325.959 15.8873C326.328 16.3047 326.808 16.5134 327.397 16.5134C327.987 16.5134 328.466 16.3047 328.836 15.8873C329.205 15.4699 329.386 14.935 329.386 14.2828C329.386 13.6306 329.205 13.0958 328.836 12.6784C328.466 12.261 327.987 12.0523 327.397 12.0523C326.808 12.0523 326.328 12.261 325.959 12.6784Z" fill="#595959"/>
<path d="M332.431 10.0696H334.977V10.9305C335.502 10.2196 336.299 9.86743 337.38 9.86743C338.171 9.86743 338.877 10.0566 339.499 10.4348C340.121 10.8131 340.6 11.3414 340.944 12.0132C341.287 12.6849 341.455 13.4415 341.455 14.2894C341.455 15.1372 341.28 15.8938 340.944 16.5656C340.6 17.2373 340.121 17.7591 339.499 18.1439C338.877 18.5222 338.171 18.7113 337.38 18.7113C336.305 18.7113 335.502 18.3591 334.977 17.6482V22.0245H332.431V10.0696ZM338.424 15.8938C338.786 15.4764 338.968 14.9416 338.968 14.2894C338.968 13.6372 338.786 13.1024 338.424 12.6849C338.061 12.2675 337.581 12.0588 336.979 12.0588C336.376 12.0588 335.865 12.2675 335.489 12.6849C335.12 13.1024 334.932 13.6372 334.932 14.2894C334.932 14.9416 335.12 15.4764 335.489 15.8938C335.858 16.3112 336.357 16.5199 336.979 16.5199C337.601 16.5199 338.061 16.3112 338.424 15.8938Z" fill="#595959"/>
<path d="M344.584 18.5027H342.038V6.41089H344.584V18.5027Z" fill="#595959"/>
<path d="M347.28 18.1375C346.619 17.7593 346.101 17.231 345.732 16.5592C345.363 15.8874 345.175 15.1309 345.175 14.283C345.175 13.4352 345.363 12.6786 345.732 12.0068C346.101 11.3351 346.619 10.8068 347.28 10.4285C347.941 10.0502 348.692 9.86108 349.535 9.86108C350.377 9.86108 351.122 10.0502 351.789 10.4285C352.45 10.8068 352.968 11.3351 353.337 12.0068C353.707 12.6786 353.895 13.4352 353.895 14.283C353.895 14.5635 353.875 14.8374 353.836 15.1048H347.701C347.798 15.5939 348.006 15.9722 348.33 16.2396C348.654 16.507 349.055 16.644 349.528 16.644C349.891 16.644 350.215 16.5853 350.493 16.4614C350.772 16.344 350.966 16.1809 351.07 15.9787H353.629C353.486 16.5136 353.221 16.9897 352.826 17.394C352.437 17.7984 351.951 18.118 351.381 18.3528C350.811 18.581 350.189 18.6984 349.522 18.6984C348.686 18.6984 347.934 18.5093 347.267 18.131L347.28 18.1375ZM351.407 13.4547C351.303 12.946 351.089 12.5612 350.766 12.2938C350.442 12.0329 350.033 11.896 349.535 11.896C349.036 11.896 348.634 12.0264 348.317 12.2938C347.999 12.5612 347.792 12.946 347.688 13.4547H351.407Z" fill="#595959"/>
<path d="M362.471 12.2741H360.871V18.5092H358.325V12.2741H356.926V10.0697H358.325V9.23486C358.325 8.38047 358.578 7.68914 359.083 7.15433C359.588 6.61952 360.281 6.35864 361.169 6.35864C361.629 6.35864 362.011 6.38473 362.329 6.44343V8.58918C362.206 8.56962 361.985 8.56309 361.668 8.56309C361.422 8.56309 361.227 8.63483 361.078 8.78484C360.936 8.93485 360.865 9.13051 360.865 9.38486V10.0762H362.465V12.2806L362.471 12.2741Z" fill="#595959"/>
<path d="M362.731 10.0696H365.277V10.9305C365.802 10.2196 366.585 9.86743 367.622 9.86743C368.082 9.86743 368.445 9.91308 368.723 10.0109L368.749 12.4175C368.386 12.2284 367.952 12.1306 367.447 12.1306C366.773 12.1306 366.236 12.3132 365.853 12.6784C365.465 13.0437 365.277 13.5459 365.277 14.1915V18.5091H362.731V10.0696Z" fill="#595959"/>
<path d="M375.071 10.4348C375.745 10.8131 376.276 11.3414 376.659 12.0132C377.041 12.6849 377.229 13.4415 377.229 14.2894C377.229 15.1372 377.041 15.8938 376.659 16.5656C376.276 17.2373 375.745 17.7591 375.071 18.1439C374.398 18.5222 373.633 18.7113 372.785 18.7113C371.936 18.7113 371.171 18.5222 370.498 18.1439C369.824 17.7656 369.293 17.2373 368.911 16.5656C368.528 15.8938 368.34 15.1372 368.34 14.2894C368.34 13.4415 368.528 12.6849 368.911 12.0132C369.293 11.3414 369.824 10.8131 370.498 10.4348C371.171 10.0566 371.936 9.86743 372.785 9.86743C373.633 9.86743 374.398 10.0566 375.071 10.4348ZM371.346 12.6784C370.977 13.0958 370.796 13.6306 370.796 14.2828C370.796 14.935 370.977 15.4699 371.346 15.8873C371.716 16.3047 372.195 16.5134 372.785 16.5134C373.374 16.5134 373.854 16.3047 374.223 15.8873C374.592 15.4699 374.773 14.935 374.773 14.2828C374.773 13.6306 374.592 13.0958 374.223 12.6784C373.854 12.261 373.374 12.0523 372.785 12.0523C372.195 12.0523 371.716 12.261 371.346 12.6784Z" fill="#595959"/>
<path d="M377.819 10.0696H380.365V10.8783C380.624 10.5327 380.916 10.2783 381.246 10.1153C381.576 9.95222 381.965 9.86743 382.425 9.86743C382.95 9.86743 383.423 9.97178 383.857 10.174C384.291 10.3761 384.641 10.6827 384.913 11.074C385.23 10.6696 385.612 10.3696 386.072 10.1674C386.532 9.96526 387.07 9.86743 387.705 9.86743C388.34 9.86743 388.903 10.0174 389.389 10.324C389.875 10.624 390.251 11.061 390.516 11.6284C390.782 12.1958 390.918 12.861 390.918 13.6306V18.5091H388.372V14.0611C388.372 13.4154 388.255 12.9263 388.016 12.5871C387.776 12.248 387.426 12.0784 386.96 12.0784C386.552 12.0784 386.234 12.2349 386.007 12.5545C385.781 12.8741 385.664 13.3306 385.645 13.9372V18.5156H383.099V14.0676C383.099 13.4219 382.982 12.9328 382.742 12.5936C382.503 12.2545 382.153 12.0849 381.686 12.0849C381.278 12.0849 380.961 12.2414 380.734 12.561C380.507 12.8806 380.391 13.3372 380.371 13.9437V18.5222H377.825V10.0892L377.819 10.0696Z" fill="#595959"/>
<path d="M405.255 6.76953V18.5027H402.651V13.7351H397.5V18.5027H394.896V6.76953H397.5V11.4197H402.651V6.76953H405.255Z" fill="#595959"/>
<path d="M407.871 18.1375C407.25 17.7593 406.77 17.231 406.427 16.5592C406.083 15.8874 405.915 15.1309 405.915 14.283C405.915 13.4352 406.09 12.6786 406.427 12.0068C406.77 11.3351 407.25 10.8068 407.871 10.4285C408.493 10.0502 409.193 9.86108 409.99 9.86108C411.065 9.86108 411.869 10.2133 412.393 10.9242V10.0633H414.939V18.4963H412.393V17.6353C411.869 18.3462 411.065 18.6984 409.99 18.6984C409.2 18.6984 408.493 18.5093 407.871 18.131V18.1375ZM411.875 15.894C412.244 15.4766 412.432 14.9417 412.432 14.2895C412.432 13.6373 412.244 13.1025 411.875 12.6851C411.506 12.2677 411.007 12.059 410.392 12.059C409.776 12.059 409.31 12.2677 408.947 12.6851C408.584 13.1025 408.403 13.6373 408.403 14.2895C408.403 14.9417 408.584 15.4766 408.947 15.894C409.31 16.3114 409.789 16.5201 410.392 16.5201C410.994 16.5201 411.506 16.3114 411.875 15.894Z" fill="#595959"/>
<path d="M423.316 16.3307V18.5026H415.451V16.7873L419.597 12.2414H415.639V10.0696H423.044V11.7849L418.898 16.3307H423.316Z" fill="#595959"/>
<path d="M425.117 18.1375C424.495 17.7593 424.015 17.231 423.672 16.5592C423.329 15.8874 423.16 15.1309 423.16 14.283C423.16 13.4352 423.335 12.6786 423.672 12.0068C424.015 11.3351 424.495 10.8068 425.117 10.4285C425.739 10.0502 426.438 9.86108 427.235 9.86108C428.311 9.86108 429.114 10.2133 429.639 10.9242V10.0633H432.185V18.4963H429.639V17.6353C429.114 18.3462 428.311 18.6984 427.235 18.6984C426.445 18.6984 425.739 18.5093 425.117 18.131V18.1375ZM429.12 15.894C429.49 15.4766 429.678 14.9417 429.678 14.2895C429.678 13.6373 429.49 13.1025 429.12 12.6851C428.751 12.2677 428.252 12.059 427.637 12.059C427.021 12.059 426.555 12.2677 426.192 12.6851C425.829 13.1025 425.648 13.6373 425.648 14.2895C425.648 14.9417 425.829 15.4766 426.192 15.894C426.555 16.3114 427.034 16.5201 427.637 16.5201C428.239 16.5201 428.751 16.3114 429.12 15.894Z" fill="#595959"/>
<path d="M433.195 10.0696H435.741V10.9305C436.266 10.2196 437.049 9.86743 438.086 9.86743C438.546 9.86743 438.909 9.91308 439.187 10.0109L439.213 12.4175C438.85 12.2284 438.416 12.1306 437.911 12.1306C437.237 12.1306 436.7 12.3132 436.317 12.6784C435.929 13.0437 435.741 13.5459 435.741 14.1915V18.5091H433.195V10.0696Z" fill="#595959"/>
<path d="M440.763 18.1374C440.141 17.7592 439.661 17.2309 439.318 16.5591C438.975 15.8873 438.806 15.1308 438.806 14.2829C438.806 13.435 438.981 12.6785 439.318 12.0067C439.661 11.335 440.141 10.8067 440.763 10.4284C441.385 10.0501 442.084 9.86097 442.881 9.86097C443.957 9.86097 444.76 10.2132 445.285 10.9241V6.4043H447.831V18.4961H445.285V17.6352C444.76 18.3461 443.957 18.6983 442.881 18.6983C442.091 18.6983 441.385 18.5092 440.763 18.1309V18.1374ZM444.766 15.8939C445.136 15.4764 445.324 14.9416 445.324 14.2894C445.324 13.6372 445.136 13.1024 444.766 12.685C444.397 12.2676 443.898 12.0589 443.283 12.0589C442.667 12.0589 442.201 12.2676 441.838 12.685C441.475 13.1024 441.294 13.6372 441.294 14.2894C441.294 14.9416 441.475 15.4764 441.838 15.8939C442.201 16.3113 442.68 16.52 443.283 16.52C443.885 16.52 444.397 16.3113 444.766 15.8939Z" fill="#595959"/>
<path d="M455.143 10.4348C455.817 10.8131 456.348 11.3414 456.73 12.0132C457.113 12.6849 457.301 13.4415 457.301 14.2894C457.301 15.1372 457.113 15.8938 456.73 16.5656C456.348 17.2373 455.817 17.7591 455.143 18.1439C454.469 18.5222 453.705 18.7113 452.856 18.7113C452.008 18.7113 451.243 18.5222 450.57 18.1439C449.896 17.7656 449.365 17.2373 448.982 16.5656C448.6 15.8938 448.412 15.1372 448.412 14.2894C448.412 13.4415 448.6 12.6849 448.982 12.0132C449.365 11.3414 449.896 10.8131 450.57 10.4348C451.243 10.0566 452.008 9.86743 452.856 9.86743C453.705 9.86743 454.469 10.0566 455.143 10.4348ZM451.418 12.6784C451.049 13.0958 450.868 13.6306 450.868 14.2828C450.868 14.935 451.049 15.4699 451.418 15.8873C451.787 16.3047 452.267 16.5134 452.856 16.5134C453.446 16.5134 453.925 16.3047 454.295 15.8873C454.664 15.4699 454.845 14.935 454.845 14.2828C454.845 13.6306 454.664 13.0958 454.295 12.6784C453.925 12.261 453.446 12.0523 452.856 12.0523C452.267 12.0523 451.787 12.261 451.418 12.6784Z" fill="#595959"/>
<path d="M459.322 18.2547C458.823 17.9547 458.441 17.5177 458.169 16.9503C457.897 16.3829 457.761 15.7177 457.761 14.9481V10.0696H460.307V14.5176C460.307 15.1633 460.436 15.6524 460.683 15.9916C460.935 16.3307 461.298 16.5003 461.777 16.5003C462.257 16.5003 462.665 16.3112 462.95 15.9394C463.235 15.5677 463.378 15.0524 463.378 14.4002V10.0696H465.924V18.5026H463.378V17.6417C462.853 18.3526 462.069 18.7047 461.032 18.7047C460.385 18.7047 459.814 18.5547 459.316 18.2482L459.322 18.2547Z" fill="#595959"/>
<path d="M472.35 10.2067C472.921 10.435 473.381 10.748 473.724 11.1655C474.067 11.5763 474.255 12.059 474.281 12.6068H471.819C471.78 12.3459 471.631 12.1438 471.366 11.9938C471.1 11.8437 470.783 11.772 470.401 11.772C470.018 11.772 469.701 11.8307 469.448 11.9546C469.196 12.072 469.072 12.2285 469.072 12.4242C469.072 12.6264 469.221 12.7894 469.513 12.9134C469.811 13.0373 470.323 13.1612 471.055 13.2721C472.266 13.4547 473.128 13.7547 473.646 14.1786C474.158 14.6026 474.417 15.183 474.417 15.92C474.417 16.4744 474.242 16.9635 473.886 17.3875C473.536 17.8114 473.057 18.1375 472.454 18.3658C471.852 18.5941 471.197 18.7114 470.478 18.7114C469.759 18.7114 469.098 18.594 468.509 18.3593C467.919 18.1245 467.453 17.7918 467.11 17.3614C466.76 16.9309 466.572 16.4287 466.546 15.8483H469.008C469.047 16.1157 469.208 16.3374 469.494 16.5005C469.779 16.6701 470.122 16.7548 470.524 16.7548C470.925 16.7548 471.275 16.6896 471.541 16.5527C471.806 16.4157 471.942 16.2526 471.942 16.0635C471.942 15.8613 471.787 15.6917 471.469 15.5548C471.152 15.4178 470.64 15.2939 469.928 15.1895C468.833 15.0265 468.004 14.7461 467.446 14.3547C466.889 13.9634 466.611 13.3634 466.611 12.5546C466.611 12.0198 466.779 11.5437 467.116 11.1459C467.453 10.7415 467.913 10.4285 468.496 10.2132C469.079 9.99149 469.727 9.88062 470.439 9.88062C471.152 9.88062 471.767 9.99149 472.344 10.2198L472.35 10.2067Z" fill="#595959"/>
<path d="M480.798 6.76953V16.1873H486.616V18.5027H478.194V6.76953H480.798Z" fill="#595959"/>
<path d="M488.437 18.1375C487.815 17.7593 487.336 17.231 486.993 16.5592C486.649 15.8874 486.481 15.1309 486.481 14.283C486.481 13.4352 486.656 12.6786 486.993 12.0068C487.336 11.3351 487.815 10.8068 488.437 10.4285C489.059 10.0502 489.759 9.86108 490.556 9.86108C491.631 9.86108 492.434 10.2133 492.959 10.9242V10.0633H495.505V18.4963H492.959V17.6353C492.434 18.3462 491.631 18.6984 490.556 18.6984C489.765 18.6984 489.059 18.5093 488.437 18.131V18.1375ZM492.441 15.894C492.81 15.4766 492.998 14.9417 492.998 14.2895C492.998 13.6373 492.81 13.1025 492.441 12.6851C492.072 12.2677 491.573 12.059 490.957 12.059C490.342 12.059 489.875 12.2677 489.513 12.6851C489.15 13.1025 488.968 13.6373 488.968 14.2895C488.968 14.9417 489.15 15.4766 489.513 15.894C489.875 16.3114 490.355 16.5201 490.957 16.5201C491.56 16.5201 492.072 16.3114 492.441 15.894Z" fill="#595959"/>
<path d="M499.061 17.6418V18.5027H496.515V6.41089H499.061V10.9307C499.586 10.2198 500.382 9.86757 501.464 9.86757C502.255 9.86757 502.961 10.0567 503.583 10.435C504.205 10.8133 504.684 11.3415 505.027 12.0133C505.371 12.6851 505.539 13.4416 505.539 14.2895C505.539 15.1374 505.371 15.8939 505.027 16.5657C504.684 17.2375 504.205 17.7592 503.583 18.144C502.961 18.5223 502.255 18.7114 501.464 18.7114C500.389 18.7114 499.586 18.3593 499.061 17.6484V17.6418ZM502.507 15.8939C502.87 15.4765 503.052 14.9417 503.052 14.2895C503.052 13.6373 502.87 13.1025 502.507 12.6851C502.145 12.2677 501.665 12.059 501.063 12.059C500.46 12.059 499.948 12.2677 499.573 12.6851C499.203 13.1025 499.016 13.6373 499.016 14.2895C499.016 14.9417 499.203 15.4765 499.573 15.8939C499.942 16.3113 500.441 16.52 501.063 16.52C501.685 16.52 502.145 16.3113 502.507 15.8939Z" fill="#595959"/>
<path d="M512.425 10.4348C513.099 10.8131 513.63 11.3414 514.012 12.0132C514.395 12.6849 514.582 13.4415 514.582 14.2894C514.582 15.1372 514.395 15.8938 514.012 16.5656C513.63 17.2373 513.099 17.7591 512.425 18.1439C511.751 18.5222 510.987 18.7113 510.138 18.7113C509.29 18.7113 508.525 18.5222 507.851 18.1439C507.178 17.7656 506.646 17.2373 506.264 16.5656C505.882 15.8938 505.694 15.1372 505.694 14.2894C505.694 13.4415 505.882 12.6849 506.264 12.0132C506.646 11.3414 507.178 10.8131 507.851 10.4348C508.525 10.0566 509.29 9.86743 510.138 9.86743C510.987 9.86743 511.751 10.0566 512.425 10.4348ZM508.7 12.6784C508.331 13.0958 508.149 13.6306 508.149 14.2828C508.149 14.935 508.331 15.4699 508.7 15.8873C509.069 16.3047 509.549 16.5134 510.138 16.5134C510.728 16.5134 511.207 16.3047 511.576 15.8873C511.946 15.4699 512.127 14.935 512.127 14.2828C512.127 13.6306 511.946 13.0958 511.576 12.6784C511.207 12.261 510.728 12.0523 510.138 12.0523C509.549 12.0523 509.069 12.261 508.7 12.6784Z" fill="#595959"/>
<path d="M515.172 10.0696H517.718V10.9305C518.243 10.2196 519.026 9.86743 520.063 9.86743C520.523 9.86743 520.886 9.91308 521.164 10.0109L521.19 12.4175C520.827 12.2284 520.393 12.1306 519.888 12.1306C519.214 12.1306 518.677 12.3132 518.294 12.6784C517.906 13.0437 517.718 13.5459 517.718 14.1915V18.5091H515.172V10.0696Z" fill="#595959"/>
<path d="M138.219 5.78359C139.074 6.1929 139.734 6.767 140.209 7.50058C140.679 8.23415 140.917 9.07936 140.917 10.0309C140.917 10.6262 140.79 11.1738 140.531 11.6788C140.273 12.1838 139.94 12.5931 139.528 12.9067C139.116 13.2203 138.678 13.4223 138.219 13.5021C138.731 13.5818 139.227 13.7785 139.708 14.0974C140.188 14.4164 140.579 14.831 140.89 15.3466C141.202 15.8623 141.355 16.4523 141.355 17.1115C141.355 18.1268 141.091 19.0198 140.568 19.78C140.045 20.5401 139.333 21.1302 138.43 21.5448C137.527 21.9594 136.524 22.1667 135.409 22.1667C133.662 22.1667 132.262 21.7096 131.217 20.8006C130.166 19.8863 129.575 18.6477 129.443 17.0743H132.97C133.033 17.7334 133.276 18.2437 133.688 18.5999C134.1 18.956 134.676 19.1368 135.409 19.1368C136.143 19.1368 136.74 18.9507 137.189 18.5839C137.643 18.2118 137.87 17.7334 137.87 17.138C137.87 16.4789 137.617 15.9686 137.11 15.6124C136.603 15.2563 135.927 15.0755 135.072 15.0755H133.477V12.1412H135.072C135.795 12.1412 136.36 11.9605 136.777 11.5937C137.189 11.2322 137.395 10.7379 137.395 10.1159C137.395 9.49399 137.21 9.05278 136.835 8.70725C136.46 8.36173 135.938 8.19162 135.272 8.19162C134.607 8.19162 134.111 8.41489 133.757 8.86672C133.403 9.31856 133.223 9.85014 133.223 10.4721H129.696C129.696 9.45677 129.934 8.54778 130.404 7.7451C130.874 6.94774 131.539 6.31516 132.395 5.86332C133.25 5.40617 134.211 5.17759 135.288 5.17759C136.365 5.17759 137.368 5.3849 138.224 5.79422L138.219 5.78359Z" fill="#FFC20E"/>
<path d="M142.294 5.60288H148.52C150.268 5.60288 151.788 5.94309 153.087 6.62351C154.386 7.30392 155.384 8.25545 156.081 9.47807C156.778 10.7007 157.126 12.1041 157.126 13.6935C157.126 15.2829 156.778 16.6862 156.081 17.9089C155.384 19.1315 154.386 20.0777 153.087 20.7528C151.788 21.4279 150.262 21.7628 148.52 21.7628H142.294V5.60288ZM148.578 18.568C150.125 18.568 151.339 18.1428 152.221 17.2869C153.098 16.4364 153.541 15.235 153.541 13.6881C153.541 12.1413 153.103 10.9399 152.221 10.0787C151.339 9.2176 150.125 8.79234 148.578 8.79234H145.88V18.568H148.578Z" fill="#FFC20E"/>
<path d="M177.624 5.60288L171.283 21.7628H167.423L161.082 5.60288H165.137L169.509 17.4995L173.86 5.60288H177.624Z" fill="#FFC20E"/>
<path d="M181.579 5.60288V21.7628H177.994V5.60288H181.579Z" fill="#FFC20E"/>
<path d="M192.63 5.87917C193.586 6.33101 194.351 6.95295 194.922 7.75031C195.492 8.54768 195.803 9.45667 195.856 10.4773H192.155C192.049 9.76499 191.743 9.20683 191.231 8.81347C190.719 8.41478 190.038 8.2181 189.182 8.2181C188.327 8.2181 187.73 8.36694 187.271 8.66462C186.811 8.96231 186.584 9.36099 186.584 9.86598C186.584 10.2647 186.727 10.5889 187.017 10.8388C187.308 11.0886 187.751 11.3119 188.348 11.5032C188.945 11.6946 189.816 11.9072 190.956 12.1464C192.73 12.5185 193.998 13.1299 194.769 13.9804C195.534 14.8309 195.92 15.8994 195.92 17.1805C195.92 18.1851 195.635 19.0622 195.064 19.8171C194.494 20.5719 193.718 21.146 192.73 21.55C191.748 21.954 190.65 22.156 189.441 22.156C188.126 22.156 186.949 21.9274 185.908 21.4703C184.863 21.0131 184.039 20.3646 183.427 19.5194C182.814 18.6742 182.487 17.6801 182.434 16.5479H186.114C186.22 17.3293 186.59 17.9513 187.229 18.419C187.867 18.8868 188.691 19.1207 189.7 19.1207C190.434 19.1207 191.041 18.9559 191.521 18.6264C192.002 18.2968 192.239 17.8662 192.239 17.3399C192.239 16.9147 192.113 16.5692 191.854 16.2874C191.595 16.011 191.189 15.7718 190.634 15.5751C190.075 15.3784 189.298 15.1871 188.3 15.001C186.5 14.6555 185.159 14.0814 184.261 13.2787C183.369 12.4707 182.92 11.3384 182.92 9.8713C182.92 8.91978 183.205 8.09584 183.775 7.39416C184.346 6.69248 185.122 6.15559 186.109 5.77817C187.097 5.40075 188.195 5.2147 189.42 5.2147C190.645 5.2147 191.669 5.43796 192.63 5.8898V5.87917Z" fill="#FFC20E"/>
<path d="M200.366 5.60288V21.7628H196.781V5.60288H200.366Z" fill="#FFC20E"/>
<path d="M205.478 21.0558C204.158 20.3222 203.123 19.3122 202.378 18.0205C201.629 16.734 201.254 15.2828 201.254 13.6669C201.254 12.0509 201.629 10.605 202.378 9.31325C203.128 8.02684 204.158 7.01153 205.478 6.27795C206.798 5.54438 208.276 5.17759 209.918 5.17759C211.561 5.17759 213.039 5.54438 214.359 6.27795C215.679 7.01153 216.714 8.02152 217.458 9.31325C218.208 10.5997 218.578 12.0509 218.578 13.6669C218.578 15.2828 218.203 16.7287 217.458 18.0205C216.709 19.3069 215.674 20.3222 214.359 21.0558C213.039 21.7893 211.561 22.1561 209.918 22.1561C208.276 22.1561 206.798 21.7893 205.478 21.0558ZM212.522 18.2331C213.298 17.7866 213.905 17.1593 214.343 16.3619C214.781 15.5646 215.003 14.6662 215.003 13.6775C215.003 12.6888 214.781 11.7744 214.343 10.9824C213.905 10.1903 213.298 9.5684 212.522 9.11656C211.745 8.67004 210.879 8.44146 209.924 8.44146C208.968 8.44146 208.097 8.66473 207.326 9.11656C206.55 9.5684 205.942 10.185 205.504 10.9824C205.066 11.7798 204.844 12.6728 204.844 13.6775C204.844 14.6822 205.066 15.5646 205.504 16.3619C205.942 17.1593 206.55 17.7866 207.326 18.2331C208.102 18.6849 208.968 18.9082 209.924 18.9082C210.879 18.9082 211.751 18.6849 212.522 18.2331Z" fill="#FFC20E"/>
<path d="M219.47 5.60279H222.463L230.479 15.3147V5.40611H234.064V21.566H231.07L223.055 11.8541V21.768H219.47V5.60279Z" fill="#FFC20E"/>
<path d="M82.8033 21.0557C81.4991 20.3222 80.4747 19.3122 79.7302 18.0205C78.9857 16.734 78.6161 15.2828 78.6161 13.6669C78.6161 12.0509 78.9857 10.605 79.7302 9.31325C80.4694 8.02683 81.4938 7.01153 82.8033 6.27795C84.1075 5.54438 85.5754 5.17759 87.2069 5.17759C88.6378 5.17759 89.9209 5.44338 91.0562 5.96964C92.1914 6.4959 93.1154 7.22415 93.823 8.1491C94.5305 9.07404 94.9952 10.1106 95.2222 11.2641H91.6C91.4047 10.4721 90.9136 9.81293 90.1321 9.28135C89.3507 8.75509 88.4002 8.48931 87.2861 8.48931C86.3251 8.48931 85.4592 8.71257 84.6883 9.15377C83.9121 9.59498 83.3049 10.2116 82.8666 10.9983C82.4284 11.7851 82.2066 12.6728 82.2066 13.6669C82.2066 14.6609 82.4284 15.5327 82.8666 16.3247C83.3049 17.1168 83.9121 17.7334 84.6883 18.1799C85.4645 18.6211 86.3304 18.8444 87.2861 18.8444C88.0201 18.8444 88.7118 18.7009 89.3612 18.4085C90.0107 18.1161 90.5493 17.7387 90.977 17.2762C91.4047 16.8138 91.6634 16.3354 91.7531 15.8463H95.3753C95.2064 16.9414 94.7523 17.9726 94.0183 18.9401C93.2844 19.9075 92.3234 20.6836 91.1354 21.2684C89.9473 21.8584 88.6378 22.1508 87.2069 22.1508C85.5806 22.1508 84.1128 21.784 82.8033 21.0504V21.0557Z" fill="#595959"/>
<path d="M100.972 5.60288V18.568H108.988V21.7575H97.3871V5.60288H100.972Z" fill="#595959"/>
<path d="M110.741 5.60288H122.674V8.73386H114.326V12.0243H121.987V15.1553H114.326V18.6265H122.853V21.7575H110.741V5.60288Z" fill="#595959"/>
<path d="M66.0233 5.43275V9.9033C66.0233 11.2376 64.9673 12.3167 63.6683 12.3167H26.1211C26.269 13.3107 26.3534 14.3685 26.3534 15.4264C26.3534 16.4842 26.269 17.542 26.1211 18.5361H66.6727C69.6455 18.5361 72.0585 16.0643 72.0585 13.0183V5.43275H66.0233Z" fill="#595959"/>
<path d="M59.305 0L55.5294 1.72184L59.5012 10.549L63.2768 8.82719L59.305 0Z" fill="#F05353"/>
<path d="M54.3647 0.855904H50.2198V10.5465H54.3647V0.855904Z" fill="#595959"/>
<path d="M19.5948 18.079C18.4649 20.5083 15.9463 22.0764 13.1847 22.0764C9.32493 22.0764 6.18324 19.0517 6.18324 15.3307C6.18324 11.6097 9.32493 8.58502 13.1847 8.58502C15.9779 8.58502 18.5019 10.1744 19.6212 12.6409L19.9011 13.2629L25.5456 11.0941L25.2393 10.3924C23.1854 5.68793 18.4543 2.64732 13.1795 2.64732C5.96675 2.642 0.0952148 8.33518 0.0952148 15.3307C0.0952148 22.3262 5.96675 28.0194 13.1847 28.0194C18.3487 28.0194 23.0428 25.0639 25.1443 20.4923L25.4611 19.8066L19.8958 17.4411L19.6001 18.0736L19.5948 18.079Z" fill="#595959"/>
<path d="M243.095 5H242.095V23H243.095V5Z" fill="#CCCCCC"/>
</svg>
